<svg xmlns="http://www.w3.org/2000/svg" viewBox="0 0 100 80" width="100%" height="100%">
  <defs>
    <filter id="pbow-shadow" x="-15%" y="-15%" width="130%" height="130%">
      <feDropShadow dx="1" dy="3" stdDeviation="2.5" flood-color="#2c1a10" flood-opacity="0.22"/>
    </filter>
  </defs>
  <g filter="url(#pbow-shadow)">
    <!-- Die cut white border -->
    <path d="M50 32 C40 18 12 18 10 32 C8 45 35 48 45 42 L28 72 L38 72 L50 48 L62 72 L72 72 L55 42 C65 48 92 45 90 32 C88 18 60 18 50 32 Z" fill="#ffffff" stroke="#fbf5ee" stroke-width="4" stroke-linejoin="round"/>
    <!-- Left Loop -->
    <path d="M48 35 C38 22 16 22 14 34 C12 45 38 46 48 40 Z" fill="#c97e79"/>
    <path d="M46 36 C38 26 22 26 20 34 C19 41 38 42 46 38 Z" fill="#dba09b"/>
    <!-- Right Loop -->
    <path d="M52 35 C62 22 84 22 86 34 C88 45 62 46 52 40 Z" fill="#c97e79"/>
    <path d="M54 36 C62 26 78 26 80 34 C81 41 62 42 54 38 Z" fill="#dba09b"/>
    <!-- Ribbon Tails -->
    <path d="M46 42 L30 70 L38 69 L48 48 Z" fill="#a8625d"/>
    <path d="M46 42 L33 68 L39 67 L48 47 Z" fill="#c97e79"/>
    <path d="M54 42 L70 70 L62 69 L52 48 Z" fill="#a8625d"/>
    <path d="M54 42 L67 68 L61 67 L52 47 Z" fill="#c97e79"/>
    <!-- Knot -->
    <ellipse cx="50" cy="38" rx="6.5" ry="6" fill="#a8625d"/>
    <ellipse cx="50" cy="38" rx="5" ry="4.5" fill="#dba09b"/>
    <circle cx="48" cy="36" r="1.3" fill="#f7d4d0"/>
  </g>
</svg>