<svg xmlns="http://www.w3.org/2000/svg" viewBox="0 0 120 120" width="100%" height="100%">
  <defs>
    <filter id="sticker-shadow" x="-10%" y="-10%" width="130%" height="130%">
      <feDropShadow dx="1" dy="3" stdDeviation="2.5" flood-color="#2c1a10" flood-opacity="0.25"/>
    </filter>
  </defs>
  <g filter="url(#sticker-shadow)">
    <!-- Die-cut white border outline -->
    <path d="M60 14 C48 14 36 22 34 32 C26 31 16 38 18 49 C19 56 25 61 31 63 C29 68 28 74 29 80 C23 83 18 90 20 98 C22 106 31 109 38 107 C44 112 52 114 60 114 C68 114 76 112 82 107 C89 109 98 106 100 98 C102 90 97 83 91 80 C92 74 91 68 89 63 C95 61 101 56 102 49 C104 38 94 31 86 32 C84 22 72 14 60 14 Z" fill="#ffffff" stroke="#f4ede2" stroke-width="4" stroke-linejoin="round"/>
    <!-- Outer Ears -->
    <circle cx="36" cy="38" r="14" fill="#a0724f"/>
    <circle cx="84" cy="38" r="14" fill="#a0724f"/>
    <!-- Inner Ears -->
    <circle cx="36" cy="38" r="8" fill="#e8cbb0"/>
    <circle cx="84" cy="38" r="8" fill="#e8cbb0"/>
    <!-- Bear Head -->
    <ellipse cx="60" cy="55" rx="30" ry="26" fill="#b0835f"/>
    <!-- Snout Area -->
    <ellipse cx="60" cy="62" rx="16" ry="12" fill="#f4dfce"/>
    <!-- Nose & Smile -->
    <ellipse cx="60" cy="57" rx="5" ry="3.5" fill="#3b2314"/>
    <path d="M56 64 Q60 67 64 64" stroke="#3b2314" stroke-width="2" stroke-linecap="round" fill="none"/>
    <line x1="60" y1="60.5" x2="60" y2="64" stroke="#3b2314" stroke-width="1.8"/>
    <!-- Eyes with cute sparkles -->
    <circle cx="48" cy="50" r="3.5" fill="#29160a"/>
    <circle cx="72" cy="50" r="3.5" fill="#29160a"/>
    <circle cx="49" cy="49" r="1.2" fill="#ffffff"/>
    <circle cx="73" cy="49" r="1.2" fill="#ffffff"/>
    <!-- Blushing Pink Cheeks -->
    <ellipse cx="42" cy="58" rx="5" ry="2.8" fill="#e8988a" opacity="0.75"/>
    <ellipse cx="78" cy="58" rx="5" ry="2.8" fill="#e8988a" opacity="0.75"/>
    <!-- Bear Body -->
    <ellipse cx="60" cy="88" rx="26" ry="22" fill="#a0724f"/>
    <!-- Belly Patch with tiny stitches -->
    <ellipse cx="60" cy="89" rx="16" ry="14" fill="#e8cbb0"/>
    <ellipse cx="60" cy="89" rx="16" ry="14" fill="none" stroke="#8d5f3d" stroke-width="1" stroke-dasharray="2 2"/>
    <!-- Little Paws / Hands holding a red heart -->
    <circle cx="38" cy="82" r="7" fill="#b0835f"/>
    <circle cx="82" cy="82" r="7" fill="#b0835f"/>
    <!-- Small Red Heart held -->
    <path d="M60 82 Q56 75 51 79 Q46 84 60 96 Q74 84 69 79 Q64 75 60 82 Z" fill="#c64738"/>
    <path d="M55 79 Q53 82 56 86" stroke="#ffffff" stroke-width="1" stroke-linecap="round" opacity="0.6" fill="none"/>
    <!-- Little Feet -->
    <ellipse cx="42" cy="102" rx="10" ry="7" fill="#b0835f"/>
    <ellipse cx="78" cy="102" rx="10" ry="7" fill="#b0835f"/>
    <circle cx="42" cy="102" r="4" fill="#e8cbb0"/>
    <circle cx="78" cy="102" r="4" fill="#e8cbb0"/>
  </g>
</svg>